# xmcd
#
# Track frame offsets:
#	150
#	13961
#	30133
#	43822
#	59249
#	74551
#	90321
#	107735
#	119314
#	141651
#	155820
#	171764
#	186676
#
# Disc length: 2686 seconds
#
# Revision: 1
# Processed by: cddbd v1.5.2PL0 Copyright (c) Steve Scherf et al.
# Submitted via: audiograbber 1.83.01
#
DISCID=c60a7c0d
DTITLE=Willie Nelson - God's Problem Child
DYEAR=2017
DGENRE=Country
TTITLE0=Little House on the Hill
TTITLE1=Old Timer
TTITLE2=True Love
TTITLE3=Delete and Fast Forward
TTITLE4=A Woman's Love
TTITLE5=Your Memory Has a Mind of Its Own
TTITLE6=Butterfly
TTITLE7=Still Not Dead
TTITLE8=God's Problem Child
TTITLE9=It Gets Easier
TTITLE10=Lady Luck
TTITLE11=I Made a Mistake
TTITLE12=He Won't Ever Be Gone
EXTD=
EXTT0=
EXTT1=
EXTT2=
EXTT3=
EXTT4=
EXTT5=
EXTT6=
EXTT7=
EXTT8=
EXTT9=
EXTT10=
EXTT11=
EXTT12=
PLAYORDER=
